<svg width="203" height="271" viewBox="0 0 203 271" fill="none" xmlns="http://www.w3.org/2000/svg">
<path d="M202.457 170.199C202.457 225.837 157.353 270.942 101.714 270.942C46.0753 270.942 0.971208 225.837 0.971202 170.199C0.971196 114.56 46.0753 69.456 101.714 69.456C157.353 69.456 202.457 114.56 202.457 170.199Z" fill="#C5E6F9"/>
<path d="M101.991 163.328C108.889 163.174 114.409 159.854 114.321 155.912C114.233 151.971 108.57 148.901 101.672 149.055C94.7747 149.209 89.2544 152.529 89.3425 156.471C89.4305 160.412 95.0936 163.482 101.991 163.328Z" fill="white"/>
<path d="M115.856 150.994L89.7035 151.579L89.7968 155.757L115.949 155.173L115.856 150.994Z" fill="white"/>
<path d="M80.0251 150.859L79.4628 152.443C78.5461 152.118 78.0666 151.112 78.3919 150.195C78.717 149.279 79.7231 148.799 80.6395 149.124C80.641 149.125 80.644 149.125 80.6485 149.127C80.658 149.13 80.6745 149.136 80.6973 149.144C80.743 149.159 80.8148 149.183 80.9107 149.213C81.1028 149.274 81.3915 149.362 81.7613 149.464C82.5021 149.667 83.5626 149.924 84.8237 150.132C87.3581 150.551 90.5859 150.753 93.6322 150.022C93.6503 150.017 93.672 150.01 93.697 150.003C93.7778 149.978 93.8946 149.943 94.0435 149.9C94.3413 149.814 94.7688 149.693 95.2972 149.556C96.3522 149.281 97.8193 148.933 99.4659 148.644C102.653 148.084 106.901 147.668 110.064 148.74L110.064 148.74C111.13 149.096 112.058 149.384 112.972 149.481L113.156 149.497L113.226 149.504C114.756 149.684 116.813 149.812 118.764 149.618C120.779 149.418 122.352 148.904 123.235 148.084C123.947 147.422 125.062 147.464 125.723 148.177C126.385 148.889 126.344 150.004 125.631 150.666C123.884 152.288 121.347 152.901 119.112 153.123C116.826 153.351 114.506 153.199 112.845 153.005C111.395 152.888 110.043 152.446 108.941 152.079C108.938 152.078 108.935 152.077 108.932 152.076C106.694 151.317 103.241 151.557 100.075 152.113C98.5461 152.382 97.1746 152.706 96.1852 152.964C95.6916 153.093 95.2955 153.205 95.0252 153.283C94.8901 153.322 94.7865 153.353 94.7182 153.374C94.684 153.384 94.6586 153.392 94.6424 153.397C94.6345 153.399 94.6287 153.401 94.6253 153.402C94.6238 153.403 94.6221 153.403 94.6221 153.403C94.585 153.414 94.5475 153.425 94.5097 153.434C90.8066 154.335 87.033 154.067 84.2496 153.608C82.8455 153.376 81.6634 153.089 80.828 152.86C80.4098 152.745 80.0767 152.644 79.8443 152.57C79.7281 152.533 79.6369 152.503 79.5727 152.481C79.5406 152.47 79.515 152.462 79.4966 152.456C79.4874 152.452 79.4798 152.45 79.4742 152.448C79.4714 152.447 79.4692 152.446 79.4672 152.445C79.4663 152.445 79.4644 152.444 79.4644 152.444L79.4636 152.444C79.464 152.441 79.4848 152.381 80.0251 150.859Z" fill="#211815"/>
<path d="M80.0515 150.784C80.0659 150.743 80.0799 150.704 80.0935 150.666L80.0251 150.859C80.0338 150.834 80.0426 150.809 80.0515 150.784Z" fill="#211815"/>
<path d="M114.739 152.199C115.229 151.359 116.307 151.074 117.147 151.563C117.988 152.052 118.273 153.131 117.783 153.971C114.094 160.31 110.236 163.815 106.334 165.226C102.373 166.658 98.704 165.814 95.7045 164.191C92.7389 162.587 90.3286 160.178 88.6896 158.237C87.8616 157.256 87.2107 156.371 86.7644 155.727C86.5411 155.405 86.368 155.142 86.249 154.957C86.1894 154.864 86.1432 154.791 86.1109 154.739C86.0948 154.713 86.0822 154.692 86.0731 154.677C86.0685 154.669 86.0645 154.663 86.0617 154.659C86.0602 154.656 86.0594 154.654 86.0584 154.652C86.0579 154.652 86.0568 154.65 86.0568 154.65C86.0566 154.649 86.0771 154.636 87.5662 153.743C87.6375 153.7 87.7051 153.659 87.7698 153.62L86.056 154.649C85.5556 153.815 85.8262 152.733 86.6602 152.233C87.4943 151.732 88.5756 152.003 89.076 152.837C89.0768 152.838 89.0787 152.84 89.0805 152.843C89.0852 152.851 89.0934 152.864 89.1049 152.883C89.1279 152.92 89.1641 152.978 89.2132 153.054C89.3116 153.208 89.4612 153.435 89.6587 153.72C90.0543 154.29 90.638 155.084 91.3811 155.964C92.8842 157.745 94.9624 159.785 97.38 161.093C99.7638 162.383 102.373 162.912 105.136 161.914C107.957 160.894 111.267 158.164 114.739 152.199Z" fill="#211815"/>
<path d="M84.5524 141.415C86.5232 141.371 88.0692 139.023 88.0054 136.17C87.9417 133.318 86.2924 131.041 84.3216 131.085C82.3509 131.129 80.8049 133.477 80.8686 136.33C80.9324 139.182 82.5817 141.459 84.5524 141.415Z" fill="#211815"/>
<path d="M117.59 140.676C119.561 140.632 121.107 138.284 121.043 135.432C120.98 132.579 119.33 130.303 117.36 130.347C115.389 130.391 113.843 132.739 113.907 135.591C113.97 138.444 115.62 140.72 117.59 140.676Z" fill="#211815"/>
<path d="M66.5835 157.8C62.9984 176.633 48.7855 189.747 34.838 187.092C20.8905 184.437 12.4901 167.018 16.0751 148.185C19.6602 129.352 33.8731 116.238 47.8206 118.893C61.7681 121.548 70.1685 138.967 66.5835 157.8Z" fill="#588AAC"/>
<path d="M191.503 144.438C197.882 162.517 192.199 181.002 178.811 185.726C165.422 190.451 149.397 179.625 143.017 161.547C136.638 143.469 142.321 124.983 155.71 120.259C169.098 115.534 185.124 126.36 191.503 144.438Z" fill="#588AAC"/>
<path d="M100.022 34.9155L123.049 69.456L151.833 46.429L140.319 103.996H59.7249L48.2114 46.429L76.9952 69.456L100.022 34.9155Z" fill="#F6B191" stroke="#F6B191" stroke-width="11.5135" stroke-linecap="round" stroke-linejoin="round"/>
</svg>
