<svg width="202" height="271" viewBox="0 0 202 271" fill="none" xmlns="http://www.w3.org/2000/svg">
<path d="M201.97 170.228C201.97 225.867 156.866 270.971 101.228 270.971C45.5889 270.971 0.484876 225.867 0.484871 170.228C0.484867 114.589 45.5889 69.4853 101.228 69.4853C156.866 69.4853 201.97 114.589 201.97 170.228Z" fill="#B8E9B7"/>
<path d="M101.505 163.358C108.403 163.203 113.923 159.883 113.835 155.942C113.747 152 108.084 148.93 101.186 149.084C94.2883 149.238 88.768 152.558 88.8561 156.5C88.9442 160.441 94.6073 163.512 101.505 163.358Z" fill="white"/>
<path d="M115.37 151.023L89.2171 151.608L89.3105 155.787L115.463 155.202L115.37 151.023Z" fill="white"/>
<path d="M79.5387 150.888L78.9764 152.473C78.0598 152.147 77.5803 151.141 77.9055 150.224C78.2307 149.308 79.2367 148.829 80.1532 149.153C80.1546 149.154 80.1577 149.155 80.1621 149.156C80.1717 149.16 80.1881 149.165 80.211 149.173C80.2567 149.188 80.3285 149.212 80.4243 149.243C80.6165 149.304 80.9052 149.391 81.2749 149.493C82.0158 149.696 83.0763 149.953 84.3374 150.162C86.8717 150.58 90.0995 150.782 93.1459 150.052C93.1639 150.046 93.1856 150.04 93.2106 150.032C93.2914 150.008 93.4082 149.973 93.5571 149.929C93.8549 149.843 94.2824 149.723 94.8108 149.585C95.8659 149.31 97.333 148.962 98.9795 148.673C102.166 148.114 106.415 147.697 109.578 148.769L109.577 148.77C110.644 149.125 111.572 149.414 112.486 149.51L112.669 149.527L112.74 149.534C114.27 149.714 116.327 149.842 118.277 149.648C120.293 149.447 121.865 148.933 122.748 148.113C123.461 147.452 124.575 147.493 125.237 148.206C125.899 148.919 125.858 150.033 125.145 150.695C123.398 152.317 120.861 152.93 118.626 153.153C116.34 153.38 114.02 153.229 112.358 153.035C110.908 152.917 109.557 152.476 108.455 152.108C108.452 152.107 108.449 152.106 108.446 152.105C106.208 151.346 102.754 151.587 99.5891 152.142C98.0598 152.411 96.6883 152.736 95.6989 152.993C95.2053 153.122 94.8092 153.234 94.5388 153.312C94.4038 153.351 94.3002 153.382 94.2318 153.403C94.1977 153.413 94.1722 153.421 94.1561 153.426C94.1481 153.429 94.1424 153.431 94.139 153.432C94.1375 153.432 94.1357 153.432 94.1357 153.432C94.0986 153.444 94.0611 153.455 94.0233 153.464C90.3202 154.364 86.5466 154.097 83.7632 153.637C82.3592 153.405 81.1771 153.119 80.3417 152.889C79.9235 152.774 79.5903 152.673 79.3579 152.599C79.2418 152.562 79.1506 152.532 79.0864 152.511C79.0543 152.5 79.0286 152.491 79.0102 152.485C79.0011 152.482 78.9935 152.479 78.9878 152.477C78.985 152.476 78.9828 152.475 78.9809 152.474C78.9799 152.474 78.978 152.473 78.978 152.473L78.9772 152.473C78.9776 152.471 78.9985 152.411 79.5387 150.888Z" fill="#211815"/>
<path d="M79.5652 150.813C79.5795 150.773 79.5935 150.733 79.6071 150.695L79.5387 150.888C79.5474 150.863 79.5562 150.838 79.5652 150.813Z" fill="#211815"/>
<path d="M114.253 152.228C114.742 151.388 115.82 151.103 116.661 151.592C117.502 152.082 117.786 153.16 117.297 154C113.607 160.34 109.749 163.845 105.847 165.255C101.887 166.687 98.2176 165.843 95.2181 164.221C92.2526 162.617 89.8422 160.207 88.2032 158.266C87.3753 157.285 86.7243 156.4 86.2781 155.757C86.0547 155.435 85.8817 155.172 85.7626 154.986C85.7031 154.894 85.6569 154.82 85.6246 154.768C85.6085 154.742 85.5959 154.721 85.5867 154.706C85.5821 154.699 85.5781 154.692 85.5753 154.688C85.5739 154.685 85.573 154.683 85.572 154.682C85.5716 154.681 85.5704 154.68 85.5704 154.68C85.5702 154.679 85.5907 154.666 87.0798 153.772C87.1511 153.729 87.2187 153.688 87.2834 153.649L85.5696 154.678C85.0692 153.844 85.3398 152.762 86.1739 152.262C87.0079 151.761 88.0892 152.032 88.5897 152.866C88.5905 152.867 88.5923 152.869 88.5941 152.872C88.5989 152.88 88.6071 152.894 88.6186 152.912C88.6415 152.949 88.6778 153.007 88.7269 153.084C88.8253 153.237 88.9749 153.465 89.1723 153.749C89.568 154.32 90.1517 155.114 90.8947 155.994C92.3979 157.774 94.476 159.815 96.8937 161.122C99.2775 162.412 101.887 162.942 104.65 161.943C107.471 160.923 110.781 158.194 114.253 152.228Z" fill="#211815"/>
<path d="M84.0661 141.444C86.0369 141.4 87.5828 139.052 87.5191 136.199C87.4554 133.347 85.8061 131.07 83.8353 131.114C81.8645 131.158 80.3186 133.506 80.3823 136.359C80.446 139.211 82.0953 141.488 84.0661 141.444Z" fill="#211815"/>
<path d="M117.104 140.706C119.075 140.662 120.621 138.314 120.557 135.461C120.493 132.609 118.844 130.332 116.873 130.376C114.902 130.42 113.356 132.768 113.42 135.621C113.484 138.473 115.133 140.75 117.104 140.706Z" fill="#211815"/>
<path d="M66.0971 157.829C62.5121 176.662 48.2991 189.776 34.3516 187.121C20.4042 184.466 12.0038 167.047 15.5888 148.214C19.1739 129.382 33.3868 116.267 47.3343 118.922C61.2818 121.577 69.6822 138.997 66.0971 157.829Z" fill="#5BAC58"/>
<path d="M191.016 144.468C197.396 162.546 191.713 181.031 178.324 185.756C164.935 190.48 148.91 179.655 142.531 161.576C136.152 143.498 141.834 125.013 155.223 120.288C168.612 115.564 184.637 126.389 191.016 144.468Z" fill="#5BAC58"/>
<path d="M100.383 34.9448L123.41 69.4853L152.193 46.4583L140.68 104.026H60.0854L48.5719 46.4583L77.3556 69.4853L100.383 34.9448Z" fill="#FFD54B" stroke="#FFD54B" stroke-width="11.5135" stroke-linecap="round" stroke-linejoin="round"/>
</svg>
