<svg width="202" height="272" viewBox="0 0 202 272" fill="none" xmlns="http://www.w3.org/2000/svg">
<path d="M201.486 170.714C201.486 226.352 156.382 271.456 100.743 271.456C45.1041 271.456 0 226.352 0 170.714C0 115.075 45.1041 69.9707 100.743 69.9707C156.382 69.9707 201.486 115.075 201.486 170.714Z" fill="#FFB0C1"/>
<path d="M101.02 163.843C107.918 163.689 113.438 160.369 113.35 156.427C113.262 152.486 107.599 149.415 100.701 149.569C93.8035 149.723 88.2832 153.044 88.3713 156.985C88.4594 160.927 94.1225 163.997 101.02 163.843Z" fill="white"/>
<path d="M114.885 151.509L88.7323 152.093L88.8257 156.272L114.978 155.688L114.885 151.509Z" fill="white"/>
<path d="M79.0539 151.373L78.4916 152.958C77.575 152.633 77.0955 151.626 77.4207 150.71C77.7459 149.793 78.7519 149.314 79.6684 149.639C79.6698 149.639 79.6729 149.64 79.6773 149.642C79.6868 149.645 79.7033 149.651 79.7262 149.658C79.7719 149.674 79.8436 149.697 79.9395 149.728C80.1316 149.789 80.4203 149.877 80.7901 149.978C81.531 150.182 82.5915 150.439 83.8525 150.647C86.3869 151.066 89.6147 151.268 92.6611 150.537C92.6791 150.531 92.7008 150.525 92.7258 150.517C92.8066 150.493 92.9234 150.458 93.0723 150.415C93.3701 150.328 93.7976 150.208 94.326 150.07C95.3811 149.795 96.8482 149.448 98.4947 149.159C101.681 148.599 105.93 148.182 109.093 149.255C110.16 149.61 111.087 149.899 112.001 149.995L112.185 150.012L112.255 150.019C113.785 150.199 115.842 150.327 117.793 150.133C119.808 149.933 121.381 149.419 122.263 148.599C122.976 147.937 124.09 147.979 124.752 148.691C125.414 149.404 125.373 150.518 124.66 151.18C122.913 152.803 120.376 153.416 118.141 153.638C115.855 153.865 113.535 153.714 111.873 153.52C110.424 153.402 109.072 152.961 107.97 152.594C107.967 152.593 107.964 152.592 107.961 152.591C105.723 151.832 102.269 152.072 99.1043 152.628C97.575 152.896 96.2035 153.221 95.2141 153.479C94.7204 153.608 94.3244 153.719 94.054 153.798C93.919 153.837 93.8154 153.868 93.747 153.888C93.7129 153.899 93.6874 153.907 93.6713 153.912C93.6633 153.914 93.6576 153.916 93.6542 153.917C93.6527 153.917 93.6509 153.917 93.6509 153.917C93.6138 153.929 93.5763 153.94 93.5385 153.949C89.8354 154.849 86.0618 154.582 83.2784 154.122C81.8744 153.89 80.6923 153.604 79.8569 153.375C79.4386 153.26 79.1055 153.159 78.8731 153.085C78.7569 153.048 78.6658 153.018 78.6015 152.996C78.5694 152.985 78.5438 152.977 78.5254 152.97C78.5162 152.967 78.5087 152.965 78.503 152.963C78.5002 152.962 78.498 152.96 78.4961 152.96C78.4951 152.959 78.4932 152.959 78.4932 152.959L78.4924 152.959C78.4928 152.956 78.5136 152.896 79.0539 151.373Z" fill="#211815"/>
<path d="M79.0804 151.298C79.0947 151.258 79.1087 151.219 79.1223 151.18L79.0539 151.373C79.0626 151.349 79.0714 151.324 79.0804 151.298Z" fill="#211815"/>
<path d="M113.768 152.714C114.258 151.873 115.336 151.589 116.176 152.078C117.017 152.567 117.302 153.645 116.812 154.486C113.122 160.825 109.264 164.33 105.362 165.741C101.402 167.172 97.7328 166.329 94.7333 164.706C91.7678 163.102 89.3574 160.693 87.7184 158.752C86.8904 157.771 86.2395 156.885 85.7933 156.242C85.5699 155.92 85.3969 155.657 85.2778 155.472C85.2183 155.379 85.172 155.306 85.1398 155.253C85.1236 155.227 85.1111 155.207 85.1019 155.192C85.0973 155.184 85.0933 155.178 85.0905 155.173C85.0891 155.171 85.0882 155.169 85.0872 155.167C85.0868 155.166 85.0856 155.165 85.0856 155.165C85.0854 155.164 85.1059 155.151 86.595 154.257C86.6663 154.215 86.7339 154.173 86.7986 154.135L85.0848 155.163C84.5844 154.329 84.855 153.248 85.6891 152.747C86.5231 152.247 87.6044 152.517 88.1048 153.352C88.1057 153.353 88.1075 153.355 88.1093 153.358C88.1141 153.365 88.1223 153.379 88.1338 153.398C88.1567 153.435 88.193 153.492 88.2421 153.569C88.3405 153.722 88.4901 153.95 88.6875 154.235C89.0831 154.805 89.6669 155.599 90.4099 156.479C91.9131 158.26 93.9912 160.3 96.4089 161.608C98.7927 162.897 101.402 163.427 104.165 162.428C106.986 161.409 110.296 158.679 113.768 152.714Z" fill="#211815"/>
<path d="M83.5813 141.929C85.5521 141.885 87.098 139.537 87.0343 136.685C86.9705 133.832 85.3213 131.556 83.3505 131.6C81.3797 131.644 79.8337 133.992 79.8975 136.844C79.9612 139.697 81.6105 141.973 83.5813 141.929Z" fill="#211815"/>
<path d="M116.619 141.191C118.59 141.147 120.136 138.799 120.072 135.947C120.008 133.094 118.359 130.817 116.388 130.861C114.418 130.906 112.872 133.254 112.935 136.106C112.999 138.958 114.648 141.235 116.619 141.191Z" fill="#211815"/>
<path d="M65.6123 158.315C62.0272 177.147 47.8143 190.262 33.8668 187.607C19.9193 184.952 11.5189 167.532 15.1039 148.7C18.689 129.867 32.9019 116.753 46.8494 119.408C60.7969 122.063 69.1973 139.482 65.6123 158.315Z" fill="#FF707E"/>
<path d="M190.532 144.953C196.911 163.031 191.228 181.517 177.839 186.241C164.451 190.966 148.425 180.14 142.046 162.062C135.667 143.983 141.35 125.498 154.738 120.773C168.127 116.049 184.152 126.875 190.532 144.953Z" fill="#FF707E"/>
<path d="M100.743 35.4302L123.77 69.9707L152.554 46.9437L141.04 104.511H60.4459L48.9324 46.9437L77.7161 69.9707L100.743 35.4302Z" fill="#ABABAB" stroke="#ABABAB" stroke-width="11.5135" stroke-linecap="round" stroke-linejoin="round"/>
</svg>
