<svg width="202" height="202" viewBox="0 0 202 202" fill="none" xmlns="http://www.w3.org/2000/svg">
<path d="M201.486 100.743C201.486 156.382 156.382 201.486 100.743 201.486C45.1041 201.486 0 156.382 0 100.743C0 45.1041 45.1041 0 100.743 0C156.382 0 201.486 45.1041 201.486 100.743Z" fill="#FFB0C1"/>
<path d="M101.02 93.8723C107.918 93.7182 113.438 90.398 113.35 86.4564C113.262 82.5149 107.599 79.4446 100.701 79.5987C93.8035 79.7528 88.2832 83.073 88.3713 87.0145C88.4594 90.9561 94.1225 94.0264 101.02 93.8723Z" fill="white"/>
<path d="M114.885 81.5382L88.7323 82.1226L88.8257 86.3013L114.978 85.717L114.885 81.5382Z" fill="white"/>
<path d="M79.0539 81.4027L78.4916 82.9874C77.575 82.6621 77.0955 81.6556 77.4207 80.7389C77.7459 79.8226 78.7519 79.3434 79.6684 79.6681C79.6698 79.6686 79.6729 79.6694 79.6773 79.6709C79.6868 79.6742 79.7033 79.6799 79.7262 79.6876C79.7719 79.703 79.8436 79.7268 79.9395 79.7572C80.1316 79.8183 80.4203 79.9061 80.7901 80.0076C81.531 80.2111 82.5915 80.4679 83.8525 80.6762C86.3869 81.0949 89.6147 81.297 92.6611 80.5663C92.6791 80.5608 92.7008 80.5543 92.7258 80.5468C92.8066 80.5223 92.9234 80.4874 93.0723 80.4441C93.3701 80.3577 93.7976 80.2374 94.326 80.0997C95.3811 79.8247 96.8482 79.4771 98.4947 79.188C101.681 78.6284 105.93 78.2115 109.093 79.2841C110.16 79.6396 111.087 79.9283 112.001 80.0247L112.185 80.0414L112.255 80.0484C113.785 80.2283 115.842 80.3564 117.793 80.1624C119.808 79.962 121.381 79.448 122.263 78.6281C122.976 77.9665 124.09 78.0079 124.752 78.7206C125.414 79.4333 125.373 80.5478 124.66 81.2096C122.913 82.8319 120.376 83.4451 118.141 83.6674C115.855 83.8947 113.535 83.7434 111.873 83.5493C110.424 83.4315 109.072 82.9903 107.97 82.623C107.967 82.622 107.964 82.6211 107.961 82.6201C105.723 81.8611 102.269 82.1014 99.1043 82.6572C97.575 82.9257 96.2035 83.2504 95.2141 83.5082C94.7204 83.6368 94.3244 83.7485 94.054 83.827C93.919 83.8662 93.8154 83.8971 93.747 83.9178C93.7129 83.9281 93.6874 83.936 93.6713 83.941C93.6633 83.9435 93.6576 83.9453 93.6542 83.9463C93.6527 83.9468 93.6509 83.9467 93.6509 83.9467C93.6138 83.9584 93.5763 83.9693 93.5385 83.9785C89.8354 84.8785 86.0618 84.6113 83.2784 84.1515C81.8744 83.9196 80.6923 83.6334 79.8569 83.4039C79.4386 83.2891 79.1055 83.1878 78.8731 83.114C78.7569 83.0771 78.6658 83.0469 78.6015 83.0253C78.5694 83.0144 78.5438 83.006 78.5254 82.9996C78.5162 82.9964 78.5087 82.9939 78.503 82.9919C78.5002 82.9909 78.498 82.9897 78.4961 82.989C78.4951 82.9887 78.4932 82.9882 78.4932 82.9882L78.4924 82.9878C78.4928 82.9853 78.5136 82.9253 79.0539 81.4027Z" fill="#211815"/>
<path d="M79.0804 81.3277C79.0947 81.2874 79.1087 81.248 79.1223 81.2096L79.0539 81.4027C79.0626 81.3781 79.0714 81.353 79.0804 81.3277Z" fill="#211815"/>
<path d="M113.768 82.7432C114.258 81.9026 115.336 81.6179 116.176 82.1071C117.017 82.5965 117.302 83.6746 116.812 84.5152C113.122 90.8545 109.264 94.3595 105.362 95.7701C101.402 97.2017 97.7328 96.3578 94.7333 94.7354C91.7678 93.1314 89.3574 90.7222 87.7184 88.7808C86.8904 87.8001 86.2395 86.9147 85.7933 86.2714C85.5699 85.9493 85.3969 85.6865 85.2778 85.501C85.2183 85.4083 85.172 85.3348 85.1398 85.2827C85.1236 85.2567 85.1111 85.2359 85.1019 85.2209C85.0973 85.2133 85.0933 85.2072 85.0905 85.2025C85.0891 85.2002 85.0882 85.198 85.0872 85.1964C85.0868 85.1956 85.0856 85.1944 85.0856 85.1944C85.0854 85.1934 85.1059 85.1803 86.595 84.2868C86.6663 84.244 86.7339 84.2026 86.7986 84.1638L85.0848 85.1928C84.5844 84.3587 84.855 83.277 85.6891 82.7765C86.5231 82.2762 87.6044 82.5468 88.1048 83.3808C88.1057 83.3821 88.1075 83.384 88.1093 83.3869C88.1141 83.3947 88.1223 83.4083 88.1338 83.4268C88.1567 83.4639 88.193 83.5217 88.2421 83.5982C88.3405 83.7515 88.4901 83.9793 88.6875 84.264C89.0831 84.8344 89.6669 85.6282 90.4099 86.5084C91.9131 88.2889 93.9912 90.3295 96.4089 91.6372C98.7927 92.9266 101.402 93.4565 104.165 92.4577C106.986 91.4378 110.296 88.7085 113.768 82.7432Z" fill="#211815"/>
<path d="M83.5813 71.9586C85.5521 71.9146 87.098 69.5665 87.0343 66.7141C86.9705 63.8617 85.3213 61.585 83.3505 61.629C81.3797 61.6731 79.8337 64.0211 79.8975 66.8736C79.9612 69.726 81.6105 72.0027 83.5813 71.9586Z" fill="#211815"/>
<path d="M116.619 71.2203C118.59 71.1763 120.136 68.8283 120.072 65.9758C120.008 63.1234 118.359 60.8467 116.388 60.8908C114.418 60.9348 112.872 63.2829 112.935 66.1353C112.999 68.9877 114.648 71.2644 116.619 71.2203Z" fill="#211815"/>
<path d="M65.6123 88.3441C62.0272 107.177 47.8143 120.291 33.8668 117.636C19.9193 114.981 11.5189 97.5618 15.1039 78.7291C18.689 59.8964 32.9019 46.7819 46.8494 49.437C60.7969 52.0921 69.1973 69.5114 65.6123 88.3441Z" fill="#FF707E"/>
<path d="M190.532 74.9823C196.911 93.0607 191.228 111.546 177.839 116.27C164.451 120.995 148.425 110.169 142.046 92.0909C135.667 74.0125 141.35 55.5272 154.738 50.8028C168.127 46.0784 184.152 56.9039 190.532 74.9823Z" fill="#FF707E"/>
</svg>
