<svg width="202" height="202" viewBox="0 0 202 202" fill="none" xmlns="http://www.w3.org/2000/svg">
<path d="M201.97 100.743C201.97 156.381 156.866 201.485 101.228 201.485C45.5889 201.485 0.484876 156.381 0.484871 100.743C0.484867 45.1041 45.5889 -3.60919e-06 101.228 -8.06136e-06C156.866 -1.25135e-05 201.97 45.104 201.97 100.743Z" fill="#B8E9B7"/>
<path d="M101.505 93.8722C108.403 93.7181 113.923 90.3979 113.835 86.4563C113.747 82.5148 108.084 79.4445 101.186 79.5986C94.2883 79.7527 88.768 83.0729 88.8561 87.0145C88.9442 90.956 94.6073 94.0263 101.505 93.8722Z" fill="white"/>
<path d="M115.37 81.5381L89.2171 82.1225L89.3105 86.3013L115.463 85.7169L115.37 81.5381Z" fill="white"/>
<path d="M79.5387 81.4026L78.9764 82.9873C78.0598 82.6621 77.5803 81.6555 77.9055 80.7389C78.2307 79.8225 79.2367 79.3433 80.1532 79.668C80.1546 79.6685 80.1577 79.6693 80.1621 79.6708C80.1717 79.6742 80.1881 79.6799 80.211 79.6875C80.2567 79.7029 80.3285 79.7267 80.4243 79.7572C80.6165 79.8182 80.9052 79.906 81.2749 80.0076C82.0158 80.2111 83.0763 80.4679 84.3374 80.6762C86.8717 81.0949 90.0995 81.2969 93.1459 80.5662C93.1639 80.5607 93.1856 80.5543 93.2106 80.5467C93.2914 80.5222 93.4082 80.4873 93.5571 80.4441C93.8549 80.3576 94.2824 80.2373 94.8108 80.0996C95.8659 79.8247 97.333 79.4771 98.9795 79.1879C102.166 78.6284 106.415 78.2115 109.578 79.284L109.577 79.2844C110.644 79.64 111.572 79.9282 112.486 80.0247L112.669 80.0414L112.74 80.0483C114.27 80.2283 116.327 80.3563 118.277 80.1623C120.293 79.9619 121.865 79.4479 122.748 78.6281C123.461 77.9664 124.575 78.0078 125.237 78.7205C125.899 79.4332 125.858 80.5477 125.145 81.2096C123.398 82.8318 120.861 83.4451 118.626 83.6673C116.34 83.8946 114.02 83.7433 112.358 83.5492C110.908 83.4314 109.557 82.9903 108.455 82.6229C108.452 82.6219 108.449 82.621 108.446 82.62C106.208 81.8611 102.754 82.1013 99.5891 82.6571C98.0598 82.9257 96.6883 83.2503 95.6989 83.5081C95.2053 83.6368 94.8092 83.7485 94.5388 83.8269C94.4038 83.8661 94.3002 83.897 94.2318 83.9177C94.1977 83.9281 94.1722 83.936 94.1561 83.9409C94.1481 83.9434 94.1424 83.9452 94.139 83.9462C94.1375 83.9467 94.1357 83.9467 94.1357 83.9467C94.0986 83.9583 94.0611 83.9692 94.0233 83.9784C90.3202 84.8784 86.5466 84.6113 83.7632 84.1515C82.3592 83.9195 81.1771 83.6333 80.3417 83.4039C79.9235 83.289 79.5903 83.1878 79.3579 83.114C79.2418 83.0771 79.1506 83.0468 79.0864 83.0252C79.0543 83.0144 79.0286 83.0059 79.0102 82.9995C79.0011 82.9964 78.9935 82.9938 78.9878 82.9918C78.985 82.9908 78.9828 82.9896 78.9809 82.989C78.9799 82.9886 78.978 82.9881 78.978 82.9881L78.9772 82.9877C78.9776 82.9852 78.9985 82.9252 79.5387 81.4026Z" fill="#211815"/>
<path d="M79.5652 81.3277C79.5795 81.2873 79.5935 81.248 79.6071 81.2096L79.5387 81.4026C79.5474 81.378 79.5562 81.353 79.5652 81.3277Z" fill="#211815"/>
<path d="M114.253 82.7431C114.742 81.9025 115.82 81.6178 116.661 82.1071C117.502 82.5964 117.786 83.6745 117.297 84.5151C113.607 90.8544 109.749 94.3594 105.847 95.77C101.887 97.2016 98.2176 96.3578 95.2181 94.7354C92.2526 93.1313 89.8422 90.7221 88.2032 88.7808C87.3753 87.8 86.7243 86.9146 86.2781 86.2713C86.0547 85.9492 85.8817 85.6864 85.7626 85.5009C85.7031 85.4082 85.6569 85.3348 85.6246 85.2827C85.6085 85.2567 85.5959 85.2358 85.5867 85.2208C85.5821 85.2133 85.5781 85.2071 85.5753 85.2025C85.5739 85.2001 85.573 85.198 85.572 85.1964C85.5716 85.1956 85.5704 85.1943 85.5704 85.1943C85.5702 85.1933 85.5907 85.1802 87.0798 84.2867C87.1511 84.244 87.2187 84.2026 87.2834 84.1638L85.5696 85.1927C85.0692 84.3586 85.3398 83.2769 86.1739 82.7765C87.0079 82.2761 88.0892 82.5467 88.5897 83.3807C88.5905 83.3821 88.5923 83.3839 88.5941 83.3869C88.5989 83.3946 88.6071 83.4082 88.6186 83.4268C88.6415 83.4638 88.6778 83.5217 88.7269 83.5982C88.8253 83.7515 88.9749 83.9792 89.1723 84.2639C89.568 84.8343 90.1517 85.6282 90.8947 86.5083C92.3979 88.2888 94.476 90.3294 96.8937 91.6371C99.2775 92.9265 101.887 93.4564 104.65 92.4576C107.471 91.4378 110.781 88.7084 114.253 82.7431Z" fill="#211815"/>
<path d="M84.0661 71.9586C86.0369 71.9145 87.5828 69.5665 87.5191 66.7141C87.4554 63.8616 85.8061 61.585 83.8353 61.629C81.8645 61.673 80.3186 64.0211 80.3823 66.8735C80.446 69.726 82.0953 72.0026 84.0661 71.9586Z" fill="#211815"/>
<path d="M117.104 71.2203C119.075 71.1763 120.621 68.8282 120.557 65.9758C120.493 63.1233 118.844 60.8467 116.873 60.8907C114.902 60.9348 113.356 63.2828 113.42 66.1352C113.484 68.9877 115.133 71.2643 117.104 71.2203Z" fill="#211815"/>
<path d="M66.0971 88.344C62.5121 107.177 48.2991 120.291 34.3516 117.636C20.4042 114.981 12.0038 97.5617 15.5888 78.7291C19.1739 59.8964 33.3868 46.7819 47.3343 49.437C61.2818 52.0921 69.6822 69.5114 66.0971 88.344Z" fill="#5BAC58"/>
<path d="M191.016 74.9822C197.396 93.0606 191.713 111.546 178.324 116.27C164.935 120.995 148.91 110.169 142.531 92.0908C136.152 74.0125 141.834 55.5272 155.223 50.8027C168.612 46.0783 184.637 56.9039 191.016 74.9822Z" fill="#5BAC58"/>
</svg>
