<svg width="25" height="24" viewBox="0 0 25 24" fill="none" xmlns="http://www.w3.org/2000/svg">
<mask id="path-1-inside-1_7_454" fill="white">
<path d="M20.5 21V19C20.5 17.9391 20.0786 16.9217 19.3284 16.1716C18.5783 15.4214 17.5609 15 16.5 15H8.5C7.43913 15 6.42172 15.4214 5.67157 16.1716C4.92143 16.9217 4.5 17.9391 4.5 19V21"/>
</mask>
<path d="M20.5 21V19C20.5 17.9391 20.0786 16.9217 19.3284 16.1716C18.5783 15.4214 17.5609 15 16.5 15H8.5C7.43913 15 6.42172 15.4214 5.67157 16.1716C4.92143 16.9217 4.5 17.9391 4.5 19V21" fill="#0C7C51"/>
<path d="M19 21C19 21.8284 19.6716 22.5 20.5 22.5C21.3284 22.5 22 21.8284 22 21H20.5H19ZM16.5 15V13.5V15ZM8.5 15V13.5V15ZM4.5 19H3H4.5ZM3 21C3 21.8284 3.67157 22.5 4.5 22.5C5.32843 22.5 6 21.8284 6 21H4.5H3ZM20.5 21H22V19H20.5H19V21H20.5ZM20.5 19H22C22 17.5413 21.4205 16.1424 20.3891 15.1109L19.3284 16.1716L18.2678 17.2322C18.7366 17.7011 19 18.337 19 19H20.5ZM19.3284 16.1716L20.3891 15.1109C19.3576 14.0795 17.9587 13.5 16.5 13.5V15V16.5C17.163 16.5 17.7989 16.7634 18.2678 17.2322L19.3284 16.1716ZM16.5 15V13.5H8.5V15V16.5H16.5V15ZM8.5 15V13.5C7.04131 13.5 5.64236 14.0795 4.61091 15.1109L5.67157 16.1716L6.73223 17.2322C7.20107 16.7634 7.83696 16.5 8.5 16.5V15ZM5.67157 16.1716L4.61091 15.1109C3.57946 16.1424 3 17.5413 3 19H4.5H6C6 18.337 6.26339 17.7011 6.73223 17.2322L5.67157 16.1716ZM4.5 19H3V21H4.5H6V19H4.5Z" fill="#0C7C51" mask="url(#path-1-inside-1_7_454)"/>
<path d="M12.5 11C14.7091 11 16.5 9.20914 16.5 7C16.5 4.79086 14.7091 3 12.5 3C10.2909 3 8.5 4.79086 8.5 7C8.5 9.20914 10.2909 11 12.5 11Z" fill="#0C7C51" stroke="#0C7C51" stroke-width="1.5" stroke-linecap="round" stroke-linejoin="round"/>
</svg>
