<svg width="203" height="271" viewBox="0 0 203 271" fill="none" xmlns="http://www.w3.org/2000/svg">
<path d="M202.457 170.228C202.457 225.867 157.353 270.971 101.714 270.971C46.0753 270.971 0.971208 225.867 0.971202 170.228C0.971196 114.589 46.0753 69.4853 101.714 69.4853C157.353 69.4853 202.457 114.589 202.457 170.228Z" fill="#C5E6F9"/>
<path d="M101.991 163.358C108.889 163.203 114.409 159.883 114.321 155.942C114.233 152 108.57 148.93 101.672 149.084C94.7747 149.238 89.2544 152.558 89.3425 156.5C89.4305 160.441 95.0936 163.512 101.991 163.358Z" fill="white"/>
<path d="M115.856 151.024L89.7035 151.608L89.7968 155.787L115.949 155.202L115.856 151.024Z" fill="white"/>
<path d="M80.0251 150.888L79.4628 152.473C78.5461 152.147 78.0666 151.141 78.3919 150.224C78.717 149.308 79.7231 148.829 80.6395 149.153C80.641 149.154 80.644 149.155 80.6485 149.156C80.658 149.16 80.6745 149.165 80.6973 149.173C80.743 149.188 80.8148 149.212 80.9107 149.243C81.1028 149.304 81.3915 149.391 81.7613 149.493C82.5021 149.696 83.5626 149.953 84.8237 150.162C87.3581 150.58 90.5859 150.782 93.6322 150.052C93.6503 150.046 93.672 150.04 93.697 150.032C93.7778 150.008 93.8946 149.973 94.0435 149.929C94.3413 149.843 94.7688 149.723 95.2972 149.585C96.3522 149.31 97.8193 148.962 99.4659 148.673C102.653 148.114 106.901 147.697 110.064 148.769L110.064 148.77C111.13 149.125 112.058 149.414 112.972 149.51L113.156 149.527L113.226 149.534C114.756 149.714 116.813 149.842 118.764 149.648C120.779 149.447 122.352 148.933 123.235 148.113C123.947 147.452 125.062 147.493 125.723 148.206C126.385 148.919 126.344 150.033 125.631 150.695C123.884 152.317 121.347 152.93 119.112 153.153C116.826 153.38 114.506 153.229 112.845 153.035C111.395 152.917 110.043 152.476 108.941 152.108C108.938 152.107 108.935 152.106 108.932 152.105C106.694 151.346 103.241 151.587 100.075 152.142C98.5461 152.411 97.1746 152.736 96.1852 152.993C95.6916 153.122 95.2955 153.234 95.0252 153.312C94.8901 153.352 94.7865 153.382 94.7182 153.403C94.684 153.413 94.6586 153.421 94.6424 153.426C94.6345 153.429 94.6287 153.431 94.6253 153.432C94.6238 153.432 94.6221 153.432 94.6221 153.432C94.585 153.444 94.5475 153.455 94.5097 153.464C90.8066 154.364 87.033 154.097 84.2496 153.637C82.8455 153.405 81.6634 153.119 80.828 152.889C80.4098 152.774 80.0767 152.673 79.8443 152.599C79.7281 152.562 79.6369 152.532 79.5727 152.511C79.5406 152.5 79.515 152.491 79.4966 152.485C79.4874 152.482 79.4798 152.479 79.4742 152.477C79.4714 152.476 79.4692 152.475 79.4672 152.474C79.4663 152.474 79.4644 152.474 79.4644 152.474L79.4636 152.473C79.464 152.471 79.4848 152.411 80.0251 150.888Z" fill="#211815"/>
<path d="M80.0515 150.813C80.0659 150.773 80.0799 150.733 80.0935 150.695L80.0251 150.888C80.0338 150.863 80.0426 150.838 80.0515 150.813Z" fill="#211815"/>
<path d="M114.739 152.228C115.229 151.388 116.307 151.103 117.147 151.592C117.988 152.082 118.273 153.16 117.783 154.001C114.094 160.34 110.236 163.845 106.334 165.255C102.373 166.687 98.704 165.843 95.7045 164.221C92.7389 162.617 90.3286 160.208 88.6896 158.266C87.8616 157.285 87.2107 156.4 86.7644 155.757C86.5411 155.435 86.368 155.172 86.249 154.986C86.1894 154.894 86.1432 154.82 86.1109 154.768C86.0948 154.742 86.0822 154.721 86.0731 154.706C86.0685 154.699 86.0645 154.693 86.0617 154.688C86.0602 154.686 86.0594 154.683 86.0584 154.682C86.0579 154.681 86.0568 154.68 86.0568 154.68C86.0566 154.679 86.0771 154.666 87.5662 153.772C87.6375 153.729 87.7051 153.688 87.7698 153.649L86.056 154.678C85.5556 153.844 85.8262 152.762 86.6602 152.262C87.4943 151.761 88.5756 152.032 89.076 152.866C89.0768 152.867 89.0787 152.869 89.0805 152.872C89.0852 152.88 89.0934 152.894 89.1049 152.912C89.1279 152.949 89.1641 153.007 89.2132 153.084C89.3116 153.237 89.4612 153.465 89.6587 153.749C90.0543 154.32 90.638 155.114 91.3811 155.994C92.8842 157.774 94.9624 159.815 97.38 161.122C99.7638 162.412 102.373 162.942 105.136 161.943C107.957 160.923 111.267 158.194 114.739 152.228Z" fill="#211815"/>
<path d="M84.5524 141.444C86.5232 141.4 88.0692 139.052 88.0054 136.199C87.9417 133.347 86.2924 131.07 84.3216 131.114C82.3509 131.158 80.8049 133.506 80.8686 136.359C80.9324 139.211 82.5817 141.488 84.5524 141.444Z" fill="#211815"/>
<path d="M117.59 140.706C119.561 140.662 121.107 138.314 121.043 135.461C120.98 132.609 119.33 130.332 117.36 130.376C115.389 130.42 113.843 132.768 113.907 135.621C113.97 138.473 115.62 140.75 117.59 140.706Z" fill="#211815"/>
<path d="M66.5835 157.829C62.9984 176.662 48.7855 189.777 34.838 187.121C20.8905 184.466 12.4901 167.047 16.0751 148.214C19.6602 129.382 33.8731 116.267 47.8206 118.922C61.7681 121.577 70.1685 138.997 66.5835 157.829Z" fill="#588AAC"/>
<path d="M191.503 144.468C197.882 162.546 192.199 181.031 178.811 185.756C165.422 190.48 149.397 179.655 143.017 161.576C136.638 143.498 142.321 125.013 155.71 120.288C169.098 115.564 185.124 126.389 191.503 144.468Z" fill="#588AAC"/>
<path d="M100.022 34.9448L123.049 69.4853L151.833 46.4583L140.319 104.026H59.7249L48.2114 46.4583L76.9952 69.4853L100.022 34.9448Z" fill="#FFD54B" stroke="#FFD54B" stroke-width="11.5135" stroke-linecap="round" stroke-linejoin="round"/>
</svg>
