<svg width="202" height="271" viewBox="0 0 202 271" fill="none" xmlns="http://www.w3.org/2000/svg">
<path d="M201.486 170.228C201.486 225.867 156.382 270.971 100.743 270.971C45.1041 270.971 0 225.867 0 170.228C0 114.589 45.1041 69.4854 100.743 69.4854C156.382 69.4854 201.486 114.589 201.486 170.228Z" fill="#FFB0C1"/>
<path d="M101.02 163.358C107.918 163.204 113.438 159.883 113.35 155.942C113.262 152 107.599 148.93 100.701 149.084C93.8035 149.238 88.2832 152.558 88.3713 156.5C88.4594 160.441 94.1225 163.512 101.02 163.358Z" fill="white"/>
<path d="M114.885 151.024L88.7323 151.608L88.8257 155.787L114.978 155.202L114.885 151.024Z" fill="white"/>
<path d="M79.0539 150.888L78.4916 152.473C77.575 152.147 77.0955 151.141 77.4207 150.224C77.7459 149.308 78.7519 148.829 79.6684 149.153C79.6698 149.154 79.6729 149.155 79.6773 149.156C79.6868 149.16 79.7033 149.165 79.7262 149.173C79.7719 149.188 79.8436 149.212 79.9395 149.243C80.1316 149.304 80.4203 149.391 80.7901 149.493C81.531 149.696 82.5915 149.953 83.8525 150.162C86.3869 150.58 89.6147 150.782 92.6611 150.052C92.6791 150.046 92.7008 150.04 92.7258 150.032C92.8066 150.008 92.9234 149.973 93.0723 149.929C93.3701 149.843 93.7976 149.723 94.326 149.585C95.3811 149.31 96.8482 148.962 98.4947 148.673C101.681 148.114 105.93 147.697 109.093 148.769C110.16 149.125 111.087 149.414 112.001 149.51L112.185 149.527L112.255 149.534C113.785 149.714 115.842 149.842 117.793 149.648C119.808 149.447 121.381 148.933 122.263 148.113C122.976 147.452 124.09 147.493 124.752 148.206C125.414 148.919 125.373 150.033 124.66 150.695C122.913 152.317 120.376 152.93 118.141 153.153C115.855 153.38 113.535 153.229 111.873 153.035C110.424 152.917 109.072 152.476 107.97 152.108C107.967 152.107 107.964 152.106 107.961 152.105C105.723 151.346 102.269 151.587 99.1043 152.143C97.575 152.411 96.2035 152.736 95.2141 152.994C94.7204 153.122 94.3244 153.234 94.054 153.312C93.919 153.352 93.8154 153.382 93.747 153.403C93.7129 153.413 93.6874 153.421 93.6713 153.426C93.6633 153.429 93.6576 153.431 93.6542 153.432C93.6527 153.432 93.6509 153.432 93.6509 153.432C93.6138 153.444 93.5763 153.455 93.5385 153.464C89.8354 154.364 86.0618 154.097 83.2784 153.637C81.8744 153.405 80.6923 153.119 79.8569 152.889C79.4386 152.774 79.1055 152.673 78.8731 152.599C78.7569 152.562 78.6658 152.532 78.6015 152.511C78.5694 152.5 78.5438 152.491 78.5254 152.485C78.5162 152.482 78.5087 152.479 78.503 152.477C78.5002 152.476 78.498 152.475 78.4961 152.474C78.4951 152.474 78.4932 152.474 78.4932 152.474L78.4924 152.473C78.4928 152.471 78.5136 152.411 79.0539 150.888Z" fill="#211815"/>
<path d="M79.0804 150.813C79.0947 150.773 79.1087 150.733 79.1223 150.695L79.0539 150.888C79.0626 150.863 79.0714 150.838 79.0804 150.813Z" fill="#211815"/>
<path d="M113.768 152.229C114.258 151.388 115.336 151.103 116.176 151.593C117.017 152.082 117.302 153.16 116.812 154.001C113.122 160.34 109.264 163.845 105.362 165.255C101.402 166.687 97.7328 165.843 94.7333 164.221C91.7678 162.617 89.3574 160.208 87.7184 158.266C86.8904 157.285 86.2395 156.4 85.7933 155.757C85.5699 155.435 85.3969 155.172 85.2778 154.986C85.2183 154.894 85.172 154.82 85.1398 154.768C85.1236 154.742 85.1111 154.721 85.1019 154.706C85.0973 154.699 85.0933 154.693 85.0905 154.688C85.0891 154.686 85.0882 154.683 85.0872 154.682C85.0868 154.681 85.0856 154.68 85.0856 154.68C85.0854 154.679 85.1059 154.666 86.595 153.772C86.6663 153.729 86.7339 153.688 86.7986 153.649L85.0848 154.678C84.5844 153.844 84.855 152.762 85.6891 152.262C86.5231 151.762 87.6044 152.032 88.1048 152.866C88.1057 152.867 88.1075 152.869 88.1093 152.872C88.1141 152.88 88.1223 152.894 88.1338 152.912C88.1567 152.949 88.193 153.007 88.2421 153.084C88.3405 153.237 88.4901 153.465 88.6875 153.749C89.0831 154.32 89.6669 155.114 90.4099 155.994C91.9131 157.774 93.9912 159.815 96.4089 161.123C98.7927 162.412 101.402 162.942 104.165 161.943C106.986 160.923 110.296 158.194 113.768 152.229Z" fill="#211815"/>
<path d="M83.5813 141.444C85.5521 141.4 87.098 139.052 87.0343 136.199C86.9705 133.347 85.3213 131.07 83.3505 131.114C81.3797 131.158 79.8337 133.506 79.8975 136.359C79.9612 139.211 81.6105 141.488 83.5813 141.444Z" fill="#211815"/>
<path d="M116.619 140.706C118.59 140.662 120.136 138.314 120.072 135.461C120.008 132.609 118.359 130.332 116.388 130.376C114.418 130.42 112.872 132.768 112.935 135.621C112.999 138.473 114.648 140.75 116.619 140.706Z" fill="#211815"/>
<path d="M65.6123 157.829C62.0272 176.662 47.8143 189.777 33.8668 187.121C19.9193 184.466 11.5189 167.047 15.1039 148.214C18.689 129.382 32.9019 116.267 46.8494 118.922C60.7969 121.577 69.1973 138.997 65.6123 157.829Z" fill="#FF707E"/>
<path d="M190.532 144.468C196.911 162.546 191.228 181.031 177.839 185.756C164.451 190.48 148.425 179.655 142.046 161.576C135.667 143.498 141.35 125.013 154.738 120.288C168.127 115.564 184.152 126.389 190.532 144.468Z" fill="#FF707E"/>
<path d="M100.743 34.9448L123.77 69.4853L152.554 46.4583L141.04 104.026H60.4459L48.9324 46.4583L77.7161 69.4853L100.743 34.9448Z" fill="#FFD54B" stroke="#FFD54B" stroke-width="11.5135" stroke-linecap="round" stroke-linejoin="round"/>
</svg>
