<svg width="753" height="756" viewBox="0 0 753 756" fill="none" xmlns="http://www.w3.org/2000/svg">
<path fill-rule="evenodd" clip-rule="evenodd" d="M426.549 31.3461C605.215 -75.3244 815.685 109.159 733.794 300.516C722.764 326.277 694.132 355.135 695.417 381.652L695.492 381.803C696.398 401.898 713.245 415.043 722.991 432.04C803.447 572.178 705.313 748.577 544.703 753.488L541.833 755.15H529.14C514.258 751.297 498.922 750.617 483.888 747.067C467.797 743.214 450.27 736.188 435.69 728.331C406.983 712.845 394.442 689.803 357.349 702.721C341.787 708.085 328.944 722.287 313.306 730.144C300.01 736.792 281.577 743.893 267.223 747.369C252.718 750.919 237.76 751.221 223.407 755.15C220.989 755.074 218.572 755.301 216.155 755.15C84.4032 747.142 -15.4685 644.627 2.96439 508.494C7.34604 476.387 27.9703 423.277 51.5406 400.614C71.2578 364.427 38.4712 341.386 23.7398 311.772C-72.0521 119.357 140.835 -77.8168 327.055 31.9506C340.351 39.8074 353.799 54.0859 369.437 56.5033C395.425 60.5827 406.454 43.2823 426.549 31.3461ZM544.964 34.5033C496.78 34.5033 455.478 51.7119 421.061 86.1293C393.183 114.007 376.746 146.277 371.749 182.939C366.751 219.6 371.83 253.756 386.988 285.407L214.041 458.354V539.923L368.919 550.248L379.76 457.837H462.362V375.236L469.59 368.008C502.975 384.184 537.909 389.175 574.391 382.98C610.873 376.785 642.365 360.436 668.867 333.935C703.284 299.518 720.493 258.217 720.493 210.033C720.493 161.848 703.284 120.547 668.867 86.1293C634.449 51.712 593.149 34.5034 544.964 34.5033ZM544.964 122.268C569.056 122.268 589.707 130.872 606.916 148.08C624.124 165.289 632.728 185.94 632.728 210.033C632.728 234.125 624.124 254.775 606.916 271.984C589.707 289.192 569.056 297.796 544.964 297.796C520.872 297.796 500.222 289.192 483.013 271.984C465.805 254.775 457.2 234.124 457.2 210.032C457.2 185.94 465.805 165.289 483.013 148.08C500.222 130.872 520.872 122.268 544.964 122.268Z" fill="#0C7C51"/>
</svg>
