<svg width="203" height="272" viewBox="0 0 203 272" fill="none" xmlns="http://www.w3.org/2000/svg">
<path d="M202.457 170.713C202.457 226.352 157.353 271.456 101.714 271.456C46.0753 271.456 0.971208 226.352 0.971202 170.713C0.971196 115.075 46.0753 69.9707 101.714 69.9707C157.353 69.9707 202.457 115.075 202.457 170.713Z" fill="#C5E6F9"/>
<path d="M101.991 163.843C108.889 163.689 114.409 160.369 114.321 156.427C114.233 152.486 108.57 149.415 101.672 149.569C94.7747 149.723 89.2544 153.044 89.3425 156.985C89.4305 160.927 95.0936 163.997 101.991 163.843Z" fill="white"/>
<path d="M115.856 151.509L89.7035 152.093L89.7968 156.272L115.949 155.688L115.856 151.509Z" fill="white"/>
<path d="M80.0251 151.373L79.4628 152.958C78.5461 152.633 78.0666 151.626 78.3919 150.71C78.717 149.793 79.7231 149.314 80.6395 149.639C80.641 149.639 80.644 149.64 80.6485 149.642C80.658 149.645 80.6745 149.651 80.6973 149.658C80.743 149.674 80.8148 149.697 80.9107 149.728C81.1028 149.789 81.3915 149.877 81.7613 149.978C82.5021 150.182 83.5626 150.439 84.8237 150.647C87.3581 151.066 90.5859 151.268 93.6322 150.537C93.6503 150.531 93.672 150.525 93.697 150.517C93.7778 150.493 93.8946 150.458 94.0435 150.415C94.3413 150.328 94.7688 150.208 95.2972 150.07C96.3522 149.795 97.8193 149.448 99.4659 149.159C102.653 148.599 106.901 148.182 110.064 149.255L110.064 149.255C111.13 149.611 112.058 149.899 112.972 149.995L113.156 150.012L113.226 150.019C114.756 150.199 116.813 150.327 118.764 150.133C120.779 149.933 122.352 149.419 123.235 148.599C123.947 147.937 125.062 147.979 125.723 148.691C126.385 149.404 126.344 150.518 125.631 151.18C123.884 152.803 121.347 153.416 119.112 153.638C116.826 153.865 114.506 153.714 112.845 153.52C111.395 153.402 110.043 152.961 108.941 152.594C108.938 152.593 108.935 152.592 108.932 152.591C106.694 151.832 103.241 152.072 100.075 152.628C98.5461 152.896 97.1746 153.221 96.1852 153.479C95.6916 153.607 95.2955 153.719 95.0252 153.798C94.8901 153.837 94.7865 153.868 94.7182 153.888C94.684 153.899 94.6586 153.907 94.6424 153.912C94.6345 153.914 94.6287 153.916 94.6253 153.917C94.6238 153.917 94.6221 153.917 94.6221 153.917C94.585 153.929 94.5475 153.94 94.5097 153.949C90.8066 154.849 87.033 154.582 84.2496 154.122C82.8455 153.89 81.6634 153.604 80.828 153.375C80.4098 153.26 80.0767 153.158 79.8443 153.085C79.7281 153.048 79.6369 153.018 79.5727 152.996C79.5406 152.985 79.515 152.977 79.4966 152.97C79.4874 152.967 79.4798 152.965 79.4742 152.963C79.4714 152.962 79.4692 152.96 79.4672 152.96C79.4663 152.959 79.4644 152.959 79.4644 152.959L79.4636 152.958C79.464 152.956 79.4848 152.896 80.0251 151.373Z" fill="#211815"/>
<path d="M80.0515 151.298C80.0659 151.258 80.0799 151.219 80.0935 151.18L80.0251 151.373C80.0338 151.349 80.0426 151.324 80.0515 151.298Z" fill="#211815"/>
<path d="M114.739 152.714C115.229 151.873 116.307 151.589 117.147 152.078C117.988 152.567 118.273 153.645 117.783 154.486C114.094 160.825 110.236 164.33 106.334 165.741C102.373 167.172 98.704 166.328 95.7045 164.706C92.7389 163.102 90.3286 160.693 88.6896 158.751C87.8616 157.771 87.2107 156.885 86.7644 156.242C86.5411 155.92 86.368 155.657 86.249 155.472C86.1894 155.379 86.1432 155.305 86.1109 155.253C86.0948 155.227 86.0822 155.207 86.0731 155.192C86.0685 155.184 86.0645 155.178 86.0617 155.173C86.0602 155.171 86.0594 155.169 86.0584 155.167C86.0579 155.166 86.0568 155.165 86.0568 155.165C86.0566 155.164 86.0771 155.151 87.5662 154.257C87.6375 154.215 87.7051 154.173 87.7698 154.134L86.056 155.163C85.5556 154.329 85.8262 153.248 86.6602 152.747C87.4943 152.247 88.5756 152.517 89.076 153.351C89.0768 153.353 89.0787 153.355 89.0805 153.358C89.0852 153.365 89.0934 153.379 89.1049 153.397C89.1279 153.435 89.1641 153.492 89.2132 153.569C89.3116 153.722 89.4612 153.95 89.6587 154.235C90.0543 154.805 90.638 155.599 91.3811 156.479C92.8842 158.26 94.9624 160.3 97.38 161.608C99.7638 162.897 102.373 163.427 105.136 162.428C107.957 161.408 111.267 158.679 114.739 152.714Z" fill="#211815"/>
<path d="M84.5524 141.929C86.5232 141.885 88.0692 139.537 88.0054 136.685C87.9417 133.832 86.2924 131.556 84.3216 131.6C82.3509 131.644 80.8049 133.992 80.8686 136.844C80.9324 139.697 82.5817 141.973 84.5524 141.929Z" fill="#211815"/>
<path d="M117.59 141.191C119.561 141.147 121.107 138.799 121.043 135.946C120.98 133.094 119.33 130.817 117.36 130.861C115.389 130.905 113.843 133.254 113.907 136.106C113.97 138.958 115.62 141.235 117.59 141.191Z" fill="#211815"/>
<path d="M66.5835 158.315C62.9984 177.147 48.7855 190.262 34.838 187.607C20.8905 184.952 12.4901 167.532 16.0751 148.7C19.6602 129.867 33.8731 116.753 47.8206 119.408C61.7681 122.063 70.1685 139.482 66.5835 158.315Z" fill="#588AAC"/>
<path d="M191.503 144.953C197.882 163.031 192.199 181.517 178.811 186.241C165.422 190.965 149.397 180.14 143.017 162.062C136.638 143.983 142.321 125.498 155.71 120.773C169.098 116.049 185.124 126.875 191.503 144.953Z" fill="#588AAC"/>
<path d="M100.022 35.4302L123.049 69.9707L151.833 46.9437L140.319 104.511H59.7249L48.2114 46.9437L76.9952 69.9707L100.022 35.4302Z" fill="#ABABAB" stroke="#ABABAB" stroke-width="11.5135" stroke-linecap="round" stroke-linejoin="round"/>
</svg>
