<svg width="202" height="271" viewBox="0 0 202 271" fill="none" xmlns="http://www.w3.org/2000/svg">
<path d="M201.486 170.199C201.486 225.838 156.382 270.942 100.743 270.942C45.1041 270.942 0 225.838 0 170.199C0 114.56 45.1041 69.4561 100.743 69.4561C156.382 69.4561 201.486 114.56 201.486 170.199Z" fill="#FFB0C1"/>
<path d="M101.02 163.328C107.918 163.174 113.438 159.854 113.35 155.912C113.262 151.971 107.599 148.901 100.701 149.055C93.8035 149.209 88.2832 152.529 88.3713 156.471C88.4594 160.412 94.1225 163.482 101.02 163.328Z" fill="white"/>
<path d="M114.885 150.994L88.7323 151.579L88.8257 155.757L114.978 155.173L114.885 150.994Z" fill="white"/>
<path d="M79.0539 150.859L78.4916 152.443C77.575 152.118 77.0955 151.112 77.4207 150.195C77.7459 149.279 78.7519 148.799 79.6684 149.124C79.6698 149.125 79.6729 149.125 79.6773 149.127C79.6868 149.13 79.7033 149.136 79.7262 149.144C79.7719 149.159 79.8436 149.183 79.9395 149.213C80.1316 149.274 80.4203 149.362 80.7901 149.464C81.531 149.667 82.5915 149.924 83.8525 150.132C86.3869 150.551 89.6147 150.753 92.6611 150.022C92.6791 150.017 92.7008 150.01 92.7258 150.003C92.8066 149.978 92.9234 149.943 93.0723 149.9C93.3701 149.814 93.7976 149.693 94.326 149.556C95.3811 149.281 96.8482 148.933 98.4947 148.644C101.681 148.084 105.93 147.668 109.093 148.74C110.16 149.096 111.087 149.384 112.001 149.481L112.185 149.497L112.255 149.504C113.785 149.684 115.842 149.812 117.793 149.618C119.808 149.418 121.381 148.904 122.263 148.084C122.976 147.423 124.09 147.464 124.752 148.177C125.414 148.889 125.373 150.004 124.66 150.666C122.913 152.288 120.376 152.901 118.141 153.123C115.855 153.351 113.535 153.199 111.873 153.005C110.424 152.888 109.072 152.446 107.97 152.079C107.967 152.078 107.964 152.077 107.961 152.076C105.723 151.317 102.269 151.557 99.1043 152.113C97.575 152.382 96.2035 152.706 95.2141 152.964C94.7204 153.093 94.3244 153.205 94.054 153.283C93.919 153.322 93.8154 153.353 93.747 153.374C93.7129 153.384 93.6874 153.392 93.6713 153.397C93.6633 153.4 93.6576 153.401 93.6542 153.402C93.6527 153.403 93.6509 153.403 93.6509 153.403C93.6138 153.414 93.5763 153.425 93.5385 153.435C89.8354 154.335 86.0618 154.067 83.2784 153.608C81.8744 153.376 80.6923 153.089 79.8569 152.86C79.4386 152.745 79.1055 152.644 78.8731 152.57C78.7569 152.533 78.6658 152.503 78.6015 152.481C78.5694 152.47 78.5438 152.462 78.5254 152.456C78.5162 152.453 78.5087 152.45 78.503 152.448C78.5002 152.447 78.498 152.446 78.4961 152.445C78.4951 152.445 78.4932 152.444 78.4932 152.444L78.4924 152.444C78.4928 152.441 78.5136 152.381 79.0539 150.859Z" fill="#211815"/>
<path d="M79.0804 150.784C79.0947 150.743 79.1087 150.704 79.1223 150.666L79.0539 150.859C79.0626 150.834 79.0714 150.809 79.0804 150.784Z" fill="#211815"/>
<path d="M113.768 152.199C114.258 151.359 115.336 151.074 116.176 151.563C117.017 152.053 117.302 153.131 116.812 153.971C113.122 160.311 109.264 163.816 105.362 165.226C101.402 166.658 97.7328 165.814 94.7333 164.191C91.7678 162.587 89.3574 160.178 87.7184 158.237C86.8904 157.256 86.2395 156.371 85.7933 155.727C85.5699 155.405 85.3969 155.143 85.2778 154.957C85.2183 154.864 85.172 154.791 85.1398 154.739C85.1236 154.713 85.1111 154.692 85.1019 154.677C85.0973 154.669 85.0933 154.663 85.0905 154.659C85.0891 154.656 85.0882 154.654 85.0872 154.652C85.0868 154.652 85.0856 154.65 85.0856 154.65C85.0854 154.649 85.1059 154.636 86.595 153.743C86.6663 153.7 86.7339 153.659 86.7986 153.62L85.0848 154.649C84.5844 153.815 84.855 152.733 85.6891 152.233C86.5231 151.732 87.6044 152.003 88.1048 152.837C88.1057 152.838 88.1075 152.84 88.1093 152.843C88.1141 152.851 88.1223 152.864 88.1338 152.883C88.1567 152.92 88.193 152.978 88.2421 153.054C88.3405 153.208 88.4901 153.435 88.6875 153.72C89.0831 154.29 89.6669 155.084 90.4099 155.964C91.9131 157.745 93.9912 159.786 96.4089 161.093C98.7927 162.383 101.402 162.913 104.165 161.914C106.986 160.894 110.296 158.165 113.768 152.199Z" fill="#211815"/>
<path d="M83.5813 141.415C85.5521 141.371 87.098 139.023 87.0343 136.17C86.9705 133.318 85.3213 131.041 83.3505 131.085C81.3797 131.129 79.8337 133.477 79.8975 136.33C79.9612 139.182 81.6105 141.459 83.5813 141.415Z" fill="#211815"/>
<path d="M116.619 140.676C118.59 140.632 120.136 138.284 120.072 135.432C120.008 132.579 118.359 130.303 116.388 130.347C114.418 130.391 112.872 132.739 112.935 135.591C112.999 138.444 114.648 140.72 116.619 140.676Z" fill="#211815"/>
<path d="M65.6123 157.8C62.0272 176.633 47.8143 189.747 33.8668 187.092C19.9193 184.437 11.5189 167.018 15.1039 148.185C18.689 129.353 32.9019 116.238 46.8494 118.893C60.7969 121.548 69.1973 138.967 65.6123 157.8Z" fill="#FF707E"/>
<path d="M190.532 144.438C196.911 162.517 191.228 181.002 177.839 185.726C164.451 190.451 148.425 179.625 142.046 161.547C135.667 143.469 141.35 124.983 154.738 120.259C168.127 115.534 184.152 126.36 190.532 144.438Z" fill="#FF707E"/>
<path d="M100.743 34.9155L123.77 69.456L152.554 46.429L141.04 103.996H60.4459L48.9324 46.429L77.7161 69.456L100.743 34.9155Z" fill="#F6B191" stroke="#F6B191" stroke-width="11.5135" stroke-linecap="round" stroke-linejoin="round"/>
</svg>
