<svg width="202" height="271" viewBox="0 0 202 271" fill="none" xmlns="http://www.w3.org/2000/svg">
<path d="M201.97 170.199C201.97 225.837 156.866 270.942 101.228 270.942C45.5889 270.942 0.484876 225.837 0.484871 170.199C0.484867 114.56 45.5889 69.4561 101.228 69.456C156.866 69.456 201.97 114.56 201.97 170.199Z" fill="#B8E9B7"/>
<path d="M101.505 163.328C108.403 163.174 113.923 159.854 113.835 155.912C113.747 151.971 108.084 148.901 101.186 149.055C94.2883 149.209 88.768 152.529 88.8561 156.471C88.9442 160.412 94.6073 163.482 101.505 163.328Z" fill="white"/>
<path d="M115.37 150.994L89.2171 151.579L89.3105 155.757L115.463 155.173L115.37 150.994Z" fill="white"/>
<path d="M79.5387 150.859L78.9764 152.443C78.0598 152.118 77.5803 151.112 77.9055 150.195C78.2307 149.279 79.2367 148.799 80.1532 149.124C80.1546 149.125 80.1577 149.125 80.1621 149.127C80.1717 149.13 80.1881 149.136 80.211 149.144C80.2567 149.159 80.3285 149.183 80.4243 149.213C80.6165 149.274 80.9052 149.362 81.2749 149.464C82.0158 149.667 83.0763 149.924 84.3374 150.132C86.8717 150.551 90.0995 150.753 93.1459 150.022C93.1639 150.017 93.1856 150.01 93.2106 150.003C93.2914 149.978 93.4082 149.943 93.5571 149.9C93.8549 149.814 94.2824 149.693 94.8108 149.556C95.8659 149.281 97.333 148.933 98.9795 148.644C102.166 148.084 106.415 147.668 109.578 148.74L109.577 148.74C110.644 149.096 111.572 149.384 112.486 149.481L112.669 149.497L112.74 149.504C114.27 149.684 116.327 149.812 118.277 149.618C120.293 149.418 121.865 148.904 122.748 148.084C123.461 147.422 124.575 147.464 125.237 148.177C125.899 148.889 125.858 150.004 125.145 150.666C123.398 152.288 120.861 152.901 118.626 153.123C116.34 153.351 114.02 153.199 112.358 153.005C110.908 152.887 109.557 152.446 108.455 152.079C108.452 152.078 108.449 152.077 108.446 152.076C106.208 151.317 102.754 151.557 99.5891 152.113C98.0598 152.382 96.6883 152.706 95.6989 152.964C95.2053 153.093 94.8092 153.205 94.5388 153.283C94.4038 153.322 94.3002 153.353 94.2318 153.374C94.1977 153.384 94.1722 153.392 94.1561 153.397C94.1481 153.399 94.1424 153.401 94.139 153.402C94.1375 153.403 94.1357 153.403 94.1357 153.403C94.0986 153.414 94.0611 153.425 94.0233 153.434C90.3202 154.334 86.5466 154.067 83.7632 153.608C82.3592 153.376 81.1771 153.089 80.3417 152.86C79.9235 152.745 79.5903 152.644 79.3579 152.57C79.2418 152.533 79.1506 152.503 79.0864 152.481C79.0543 152.47 79.0286 152.462 79.0102 152.456C79.0011 152.452 78.9935 152.45 78.9878 152.448C78.985 152.447 78.9828 152.446 78.9809 152.445C78.9799 152.445 78.978 152.444 78.978 152.444L78.9772 152.444C78.9776 152.441 78.9985 152.381 79.5387 150.859Z" fill="#211815"/>
<path d="M79.5652 150.784C79.5795 150.743 79.5935 150.704 79.6071 150.666L79.5387 150.859C79.5474 150.834 79.5562 150.809 79.5652 150.784Z" fill="#211815"/>
<path d="M114.253 152.199C114.742 151.359 115.82 151.074 116.661 151.563C117.502 152.052 117.786 153.131 117.297 153.971C113.607 160.31 109.749 163.815 105.847 165.226C101.887 166.658 98.2176 165.814 95.2181 164.191C92.2526 162.587 89.8422 160.178 88.2032 158.237C87.3753 157.256 86.7243 156.371 86.2781 155.727C86.0547 155.405 85.8817 155.142 85.7626 154.957C85.7031 154.864 85.6569 154.791 85.6246 154.739C85.6085 154.713 85.5959 154.692 85.5867 154.677C85.5821 154.669 85.5781 154.663 85.5753 154.659C85.5739 154.656 85.573 154.654 85.572 154.652C85.5716 154.652 85.5704 154.65 85.5704 154.65C85.5702 154.649 85.5907 154.636 87.0798 153.743C87.1511 153.7 87.2187 153.659 87.2834 153.62L85.5696 154.649C85.0692 153.815 85.3398 152.733 86.1739 152.233C87.0079 151.732 88.0892 152.003 88.5897 152.837C88.5905 152.838 88.5923 152.84 88.5941 152.843C88.5989 152.851 88.6071 152.864 88.6186 152.883C88.6415 152.92 88.6778 152.978 88.7269 153.054C88.8253 153.208 88.9749 153.435 89.1723 153.72C89.568 154.29 90.1517 155.084 90.8947 155.964C92.3979 157.745 94.476 159.785 96.8937 161.093C99.2775 162.383 101.887 162.912 104.65 161.914C107.471 160.894 110.781 158.164 114.253 152.199Z" fill="#211815"/>
<path d="M84.0661 141.415C86.0369 141.371 87.5828 139.023 87.5191 136.17C87.4554 133.318 85.8061 131.041 83.8353 131.085C81.8645 131.129 80.3186 133.477 80.3823 136.33C80.446 139.182 82.0953 141.459 84.0661 141.415Z" fill="#211815"/>
<path d="M117.104 140.676C119.075 140.632 120.621 138.284 120.557 135.432C120.493 132.579 118.844 130.303 116.873 130.347C114.902 130.391 113.356 132.739 113.42 135.591C113.484 138.444 115.133 140.72 117.104 140.676Z" fill="#211815"/>
<path d="M66.0971 157.8C62.5121 176.633 48.2991 189.747 34.3516 187.092C20.4042 184.437 12.0038 167.018 15.5888 148.185C19.1739 129.352 33.3868 116.238 47.3343 118.893C61.2818 121.548 69.6822 138.967 66.0971 157.8Z" fill="#5BAC58"/>
<path d="M191.016 144.438C197.396 162.517 191.713 181.002 178.324 185.726C164.935 190.451 148.91 179.625 142.531 161.547C136.152 143.469 141.834 124.983 155.223 120.259C168.612 115.534 184.637 126.36 191.016 144.438Z" fill="#5BAC58"/>
<path d="M100.383 34.9155L123.41 69.456L152.193 46.429L140.68 103.996H60.0854L48.5719 46.429L77.3556 69.456L100.383 34.9155Z" fill="#F6B191" stroke="#F6B191" stroke-width="11.5135" stroke-linecap="round" stroke-linejoin="round"/>
</svg>
