<svg width="203" height="202" viewBox="0 0 203 202" fill="none" xmlns="http://www.w3.org/2000/svg">
<path d="M202.457 100.743C202.457 156.381 157.353 201.485 101.714 201.486C46.0753 201.486 0.971208 156.381 0.971202 100.743C0.971196 45.1041 46.0753 -4.8084e-06 101.714 -1.07399e-05C157.353 -1.66713e-05 202.457 45.104 202.457 100.743Z" fill="#C5E6F9"/>
<path d="M101.991 93.8722C108.889 93.7181 114.409 90.3979 114.321 86.4564C114.233 82.5148 108.57 79.4445 101.672 79.5986C94.7747 79.7527 89.2544 83.0729 89.3425 87.0145C89.4305 90.956 95.0936 94.0263 101.991 93.8722Z" fill="white"/>
<path d="M115.856 81.5382L89.7035 82.1225L89.7968 86.3013L115.949 85.7169L115.856 81.5382Z" fill="white"/>
<path d="M80.0251 81.4026L79.4628 82.9873C78.5461 82.6621 78.0666 81.6555 78.3919 80.7389C78.717 79.8225 79.7231 79.3434 80.6395 79.668C80.641 79.6685 80.644 79.6693 80.6485 79.6709C80.658 79.6742 80.6745 79.6799 80.6973 79.6876C80.743 79.703 80.8148 79.7267 80.9107 79.7572C81.1028 79.8182 81.3915 79.906 81.7613 80.0076C82.5021 80.2111 83.5626 80.4679 84.8237 80.6762C87.3581 81.0949 90.5859 81.2969 93.6322 80.5663C93.6503 80.5607 93.672 80.5543 93.697 80.5467C93.7778 80.5222 93.8946 80.4873 94.0435 80.4441C94.3413 80.3577 94.7688 80.2373 95.2972 80.0996C96.3522 79.8247 97.8193 79.4771 99.4659 79.1879C102.653 78.6284 106.901 78.2115 110.064 79.284L110.064 79.2844C111.13 79.64 112.058 79.9282 112.972 80.0247L113.156 80.0414L113.226 80.0483C114.756 80.2283 116.813 80.3563 118.764 80.1623C120.779 79.9619 122.352 79.4479 123.235 78.6281C123.947 77.9664 125.062 78.0078 125.723 78.7205C126.385 79.4333 126.344 80.5477 125.631 81.2096C123.884 82.8318 121.347 83.4451 119.112 83.6673C116.826 83.8947 114.506 83.7433 112.845 83.5493C111.395 83.4314 110.043 82.9903 108.941 82.6229C108.938 82.622 108.935 82.621 108.932 82.6201C106.694 81.8611 103.241 82.1013 100.075 82.6571C98.5461 82.9257 97.1746 83.2503 96.1852 83.5081C95.6916 83.6368 95.2955 83.7485 95.0252 83.827C94.8901 83.8662 94.7865 83.897 94.7182 83.9178C94.684 83.9281 94.6586 83.936 94.6424 83.941C94.6345 83.9434 94.6287 83.9452 94.6253 83.9463C94.6238 83.9467 94.6221 83.9467 94.6221 83.9467C94.585 83.9583 94.5475 83.9692 94.5097 83.9784C90.8066 84.8785 87.033 84.6113 84.2496 84.1515C82.8455 83.9195 81.6634 83.6334 80.828 83.4039C80.4098 83.289 80.0767 83.1878 79.8443 83.114C79.7281 83.0771 79.6369 83.0468 79.5727 83.0252C79.5406 83.0144 79.515 83.0059 79.4966 82.9996C79.4874 82.9964 79.4798 82.9938 79.4742 82.9918C79.4714 82.9909 79.4692 82.9897 79.4672 82.989C79.4663 82.9886 79.4644 82.9882 79.4644 82.9882L79.4636 82.9878C79.464 82.9852 79.4848 82.9252 80.0251 81.4026Z" fill="#211815"/>
<path d="M80.0515 81.3277C80.0659 81.2873 80.0799 81.248 80.0935 81.2096L80.0251 81.4026C80.0338 81.378 80.0426 81.353 80.0515 81.3277Z" fill="#211815"/>
<path d="M114.739 82.7431C115.229 81.9025 116.307 81.6178 117.147 82.1071C117.988 82.5964 118.273 83.6746 117.783 84.5152C114.094 90.8544 110.236 94.3594 106.334 95.77C102.373 97.2016 98.704 96.3578 95.7045 94.7354C92.7389 93.1313 90.3286 90.7222 88.6896 88.7808C87.8616 87.8 87.2107 86.9147 86.7644 86.2713C86.5411 85.9493 86.368 85.6864 86.249 85.5009C86.1894 85.4082 86.1432 85.3348 86.1109 85.2827C86.0948 85.2567 86.0822 85.2359 86.0731 85.2208C86.0685 85.2133 86.0645 85.2072 86.0617 85.2025C86.0602 85.2002 86.0594 85.198 86.0584 85.1964C86.0579 85.1956 86.0568 85.1943 86.0568 85.1943C86.0566 85.1933 86.0771 85.1802 87.5662 84.2867C87.6375 84.244 87.7051 84.2026 87.7698 84.1638L86.056 85.1927C85.5556 84.3587 85.8262 83.2769 86.6602 82.7765C87.4943 82.2761 88.5756 82.5467 89.076 83.3808C89.0768 83.3821 89.0787 83.3839 89.0805 83.3869C89.0852 83.3946 89.0934 83.4082 89.1049 83.4268C89.1279 83.4638 89.1641 83.5217 89.2132 83.5982C89.3116 83.7515 89.4612 83.9792 89.6587 84.2639C90.0543 84.8343 90.638 85.6282 91.3811 86.5083C92.8842 88.2888 94.9624 90.3294 97.38 91.6371C99.7638 92.9265 102.373 93.4564 105.136 92.4576C107.957 91.4378 111.267 88.7084 114.739 82.7431Z" fill="#211815"/>
<path d="M84.5524 71.9586C86.5232 71.9146 88.0692 69.5665 88.0054 66.7141C87.9417 63.8616 86.2924 61.585 84.3216 61.629C82.3509 61.673 80.8049 64.0211 80.8686 66.8735C80.9324 69.726 82.5817 72.0026 84.5524 71.9586Z" fill="#211815"/>
<path d="M117.59 71.2203C119.561 71.1763 121.107 68.8282 121.043 65.9758C120.98 63.1234 119.33 60.8467 117.36 60.8907C115.389 60.9348 113.843 63.2828 113.907 66.1353C113.97 68.9877 115.62 71.2643 117.59 71.2203Z" fill="#211815"/>
<path d="M66.5835 88.344C62.9984 107.177 48.7855 120.291 34.838 117.636C20.8905 114.981 12.4901 97.5617 16.0751 78.7291C19.6602 59.8964 33.8731 46.7819 47.8206 49.437C61.7681 52.0921 70.1685 69.5114 66.5835 88.344Z" fill="#588AAC"/>
<path d="M191.503 74.9822C197.882 93.0606 192.199 111.546 178.811 116.27C165.422 120.995 149.397 110.169 143.017 92.0908C136.638 74.0125 142.321 55.5272 155.71 50.8027C169.098 46.0783 185.124 56.9039 191.503 74.9822Z" fill="#588AAC"/>
</svg>
