<svg width="202" height="272" viewBox="0 0 202 272" fill="none" xmlns="http://www.w3.org/2000/svg">
<path d="M201.97 170.713C201.97 226.352 156.866 271.456 101.228 271.456C45.5889 271.456 0.484876 226.352 0.484871 170.713C0.484867 115.075 45.5889 69.9707 101.228 69.9707C156.866 69.9707 201.97 115.075 201.97 170.713Z" fill="#B8E9B7"/>
<path d="M101.505 163.843C108.403 163.689 113.923 160.369 113.835 156.427C113.747 152.486 108.084 149.415 101.186 149.569C94.2883 149.723 88.768 153.044 88.8561 156.985C88.9442 160.927 94.6073 163.997 101.505 163.843Z" fill="white"/>
<path d="M115.37 151.509L89.2171 152.093L89.3105 156.272L115.463 155.688L115.37 151.509Z" fill="white"/>
<path d="M79.5387 151.373L78.9764 152.958C78.0598 152.633 77.5803 151.626 77.9055 150.71C78.2307 149.793 79.2367 149.314 80.1532 149.639C80.1546 149.639 80.1577 149.64 80.1621 149.642C80.1717 149.645 80.1881 149.651 80.211 149.658C80.2567 149.674 80.3285 149.697 80.4243 149.728C80.6165 149.789 80.9052 149.877 81.2749 149.978C82.0158 150.182 83.0763 150.439 84.3374 150.647C86.8717 151.066 90.0995 151.268 93.1459 150.537C93.1639 150.531 93.1856 150.525 93.2106 150.517C93.2914 150.493 93.4082 150.458 93.5571 150.415C93.8549 150.328 94.2824 150.208 94.8108 150.07C95.8659 149.795 97.333 149.448 98.9795 149.159C102.166 148.599 106.415 148.182 109.578 149.255L109.577 149.255C110.644 149.611 111.572 149.899 112.486 149.995L112.669 150.012L112.74 150.019C114.27 150.199 116.327 150.327 118.277 150.133C120.293 149.933 121.865 149.419 122.748 148.599C123.461 147.937 124.575 147.979 125.237 148.691C125.899 149.404 125.858 150.518 125.145 151.18C123.398 152.803 120.861 153.416 118.626 153.638C116.34 153.865 114.02 153.714 112.358 153.52C110.908 153.402 109.557 152.961 108.455 152.594C108.452 152.593 108.449 152.592 108.446 152.591C106.208 151.832 102.754 152.072 99.5891 152.628C98.0598 152.896 96.6883 153.221 95.6989 153.479C95.2053 153.607 94.8092 153.719 94.5388 153.798C94.4038 153.837 94.3002 153.868 94.2318 153.888C94.1977 153.899 94.1722 153.907 94.1561 153.912C94.1481 153.914 94.1424 153.916 94.139 153.917C94.1375 153.917 94.1357 153.917 94.1357 153.917C94.0986 153.929 94.0611 153.94 94.0233 153.949C90.3202 154.849 86.5466 154.582 83.7632 154.122C82.3592 153.89 81.1771 153.604 80.3417 153.375C79.9235 153.26 79.5903 153.158 79.3579 153.085C79.2418 153.048 79.1506 153.018 79.0864 152.996C79.0543 152.985 79.0286 152.977 79.0102 152.97C79.0011 152.967 78.9935 152.965 78.9878 152.963C78.985 152.962 78.9828 152.96 78.9809 152.96C78.9799 152.959 78.978 152.959 78.978 152.959L78.9772 152.958C78.9776 152.956 78.9985 152.896 79.5387 151.373Z" fill="#211815"/>
<path d="M79.5652 151.298C79.5795 151.258 79.5935 151.219 79.6071 151.18L79.5387 151.373C79.5474 151.349 79.5562 151.324 79.5652 151.298Z" fill="#211815"/>
<path d="M114.253 152.714C114.742 151.873 115.82 151.589 116.661 152.078C117.502 152.567 117.786 153.645 117.297 154.486C113.607 160.825 109.749 164.33 105.847 165.741C101.887 167.172 98.2176 166.328 95.2181 164.706C92.2526 163.102 89.8422 160.693 88.2032 158.751C87.3753 157.771 86.7243 156.885 86.2781 156.242C86.0547 155.92 85.8817 155.657 85.7626 155.472C85.7031 155.379 85.6569 155.305 85.6246 155.253C85.6085 155.227 85.5959 155.207 85.5867 155.191C85.5821 155.184 85.5781 155.178 85.5753 155.173C85.5739 155.171 85.573 155.169 85.572 155.167C85.5716 155.166 85.5704 155.165 85.5704 155.165C85.5702 155.164 85.5907 155.151 87.0798 154.257C87.1511 154.215 87.2187 154.173 87.2834 154.134L85.5696 155.163C85.0692 154.329 85.3398 153.248 86.1739 152.747C87.0079 152.247 88.0892 152.517 88.5897 153.351C88.5905 153.353 88.5923 153.355 88.5941 153.358C88.5989 153.365 88.6071 153.379 88.6186 153.397C88.6415 153.435 88.6778 153.492 88.7269 153.569C88.8253 153.722 88.9749 153.95 89.1723 154.235C89.568 154.805 90.1517 155.599 90.8947 156.479C92.3979 158.26 94.476 160.3 96.8937 161.608C99.2775 162.897 101.887 163.427 104.65 162.428C107.471 161.408 110.781 158.679 114.253 152.714Z" fill="#211815"/>
<path d="M84.0661 141.929C86.0369 141.885 87.5828 139.537 87.5191 136.685C87.4554 133.832 85.8061 131.556 83.8353 131.6C81.8645 131.644 80.3186 133.992 80.3823 136.844C80.446 139.697 82.0953 141.973 84.0661 141.929Z" fill="#211815"/>
<path d="M117.104 141.191C119.075 141.147 120.621 138.799 120.557 135.946C120.493 133.094 118.844 130.817 116.873 130.861C114.902 130.905 113.356 133.254 113.42 136.106C113.484 138.958 115.133 141.235 117.104 141.191Z" fill="#211815"/>
<path d="M66.0971 158.315C62.5121 177.147 48.2991 190.262 34.3516 187.607C20.4042 184.952 12.0038 167.532 15.5888 148.7C19.1739 129.867 33.3868 116.753 47.3343 119.408C61.2818 122.063 69.6822 139.482 66.0971 158.315Z" fill="#5BAC58"/>
<path d="M191.016 144.953C197.396 163.031 191.713 181.517 178.324 186.241C164.935 190.965 148.91 180.14 142.531 162.062C136.152 143.983 141.834 125.498 155.223 120.773C168.612 116.049 184.637 126.875 191.016 144.953Z" fill="#5BAC58"/>
<path d="M100.383 35.4302L123.41 69.9707L152.193 46.9437L140.68 104.511H60.0854L48.5719 46.9437L77.3556 69.9707L100.383 35.4302Z" fill="#ABABAB" stroke="#ABABAB" stroke-width="11.5135" stroke-linecap="round" stroke-linejoin="round"/>
</svg>
